<?xml version="1.0" encoding="iso-8859-1"?>
<!-- Generator: Adobe Illustrator 19.0.0, SVG Export Plug-In . SVG Version: 6.00 Build 0)  -->
<svg xmlns="http://www.w3.org/2000/svg" xmlns:xlink="http://www.w3.org/1999/xlink" version="1.1" id="Layer_1" x="0px" y="0px" viewBox="0 0 409.167 409.167" style="enable-background:new 0 0 409.167 409.167;" xml:space="preserve" width="512" height="512">
<g>
	<ellipse style="fill:#9AD14B;" cx="204.584" cy="204.584" rx="197.084" ry="176.459"/>
	<ellipse style="fill:#D1EF9C;" cx="204.584" cy="204.584" rx="58.299" ry="65.113"/>
	<path style="fill:#FFFFFF;" d="M358.709,281.412c-1.281,0-2.579-0.328-3.767-1.019c-3.579-2.084-4.792-6.675-2.708-10.255   c11.899-20.443,17.933-42.498,17.933-65.554c0-34.042-13.821-67.155-38.918-93.239c-25.011-25.995-59.659-43.567-97.562-49.477   c-4.093-0.638-6.894-4.473-6.255-8.566c0.638-4.092,4.463-6.894,8.565-6.255c41.123,6.413,78.789,25.554,106.061,53.898   c27.799,28.893,43.108,65.699,43.108,103.639c0,25.379-6.905,50.657-19.97,73.1C363.805,280.076,361.291,281.412,358.709,281.412z"/>
	<path style="fill:#FFFFFF;" d="M205.583,253.697c-23.048,0-41.799-21.808-41.799-48.614c0-6.051,0.946-11.962,2.813-17.568   c1.308-3.93,5.556-6.056,9.485-4.746c3.93,1.309,6.055,5.555,4.746,9.485c-1.356,4.074-2.044,8.39-2.044,12.828   c0,18.535,12.022,33.614,26.799,33.614c4.142,0,7.5,3.358,7.5,7.5S209.726,253.697,205.583,253.697z"/>
	<path style="fill:#333333;" d="M204.583,388.542c-54.492,0-105.76-19.034-144.362-53.596C21.387,300.176,0,253.879,0,204.584   s21.387-95.592,60.222-130.363c38.602-34.562,89.87-53.596,144.362-53.596s105.761,19.034,144.362,53.596   c38.834,34.771,60.222,81.067,60.222,130.363s-21.387,95.592-60.222,130.363C310.344,369.508,259.075,388.542,204.583,388.542z    M204.583,35.625C100.047,35.625,15,111.42,15,204.584s85.047,168.959,189.583,168.959c104.537,0,189.584-75.795,189.584-168.959   S309.121,35.625,204.583,35.625z"/>
	<path style="fill:#333333;" d="M205.083,132.47c36.282,0,65.799,32.574,65.799,72.614s-29.518,72.614-65.799,72.614   s-65.799-32.574-65.799-72.614S168.802,132.47,205.083,132.47z M205.083,262.697c28.011,0,50.799-25.845,50.799-57.614   s-22.789-57.614-50.799-57.614s-50.799,25.845-50.799,57.614S177.073,262.697,205.083,262.697z"/>
	<path style="fill:#333333;" d="M204.416,304.544c-0.02,0-0.03,0-0.05,0l0,0c-4.14-0.01-7.49-3.38-7.48-7.52l0,0   c0.01-4.14,3.38-7.49,7.52-7.48l0,0c0.03,0,0.05,0,0.08,0l0,0c0.03,0,0.06,0,0.1,0l0,0c4.14,0,7.5,3.36,7.5,7.5l0,0   c0,4.14-3.36,7.5-7.5,7.5l0,0C204.525,304.544,204.465,304.544,204.416,304.544z M228.996,293.324c-1.73-3.77-0.07-8.22,3.69-9.95   l0,0c3.77-1.72,8.22-0.07,9.94,3.7l0,0c1.73,3.76,0.08,8.22-3.69,9.94l0,0c-1.01,0.46-2.07,0.68-3.12,0.68l0,0   C232.976,297.694,230.255,296.074,228.996,293.324z M170.036,296.924c-3.76-1.74-5.41-6.19-3.67-9.95l0,0   c1.73-3.76,6.19-5.41,9.95-3.67l0,0c3.76,1.73,5.4,6.19,3.67,9.95l0,0c-1.27,2.74-3.98,4.36-6.81,4.36l0,0   C172.116,297.614,171.056,297.394,170.036,296.924z M256.576,276.824c-3.03-2.82-3.2-7.57-0.38-10.6l0,0   c2.82-3.03,7.56-3.2,10.6-0.38l0,0c3.03,2.82,3.2,7.56,0.38,10.6l0,0c-1.48,1.59-3.48,2.39-5.49,2.39l0,0   C259.855,278.834,258.025,278.164,256.576,276.824z M141.846,276.284c-2.82-3.04-2.64-7.79,0.41-10.6l0,0   c3.04-2.82,7.78-2.63,10.59,0.41l0,0c2.82,3.04,2.63,7.78-0.41,10.6l0,0c-1.44,1.33-3.27,1.99-5.09,1.99l0,0   C145.335,278.684,143.315,277.874,141.846,276.284z M276.116,251.274c-3.81-1.61-5.59-6.01-3.98-9.83l0,0   c1.62-3.81,6.02-5.59,9.84-3.98l0,0c3.81,1.62,5.59,6.02,3.98,9.83l0,0c-1.21,2.86-3.99,4.58-6.91,4.58l0,0   C278.065,251.874,277.076,251.684,276.116,251.274z M123.125,247.094c-1.6-3.81,0.19-8.21,4.01-9.82l0,0   c3.81-1.61,8.21,0.18,9.82,4l0,0l0,0l0,0c1.61,3.82-0.18,8.22-4,9.82l0,0c-0.95,0.4-1.94,0.59-2.91,0.59l0,0   C127.116,251.684,124.335,249.964,123.125,247.094z M286.016,220.664c-4.13-0.32-7.21-3.93-6.89-8.06l0,0l0,0l0,0   c0.32-4.13,3.93-7.22,8.06-6.9l0,0c4.13,0.33,7.22,3.93,6.89,8.06l0,0c-0.3,3.94-3.59,6.92-7.47,6.92l0,0   C286.416,220.684,286.215,220.674,286.016,220.664z M115.076,213.554c-0.32-4.13,2.77-7.74,6.9-8.05l0,0   c4.13-0.31,7.74,2.78,8.05,6.91l0,0c0.32,4.13-2.78,7.73-6.91,8.05l0,0c-0.19,0.01-0.38,0.02-0.58,0.02l0,0   C118.656,220.484,115.366,217.484,115.076,213.554z M276.815,182.934c-0.97-4.02,1.51-8.07,5.54-9.04l0,0   c4.03-0.97,8.08,1.51,9.05,5.54l0,0c0.96,4.03-1.52,8.08-5.54,9.04l0,0c-0.59,0.14-1.18,0.21-1.76,0.21l0,0   C280.715,188.684,277.646,186.374,276.815,182.934z M123.335,188.274c-4.02-0.97-6.49-5.03-5.52-9.05l0,0   c0.98-4.03,5.03-6.5,9.06-5.52l0,0c4.02,0.97,6.49,5.03,5.52,9.05l0,0l0,0l0,0c-0.84,3.43-3.9,5.74-7.28,5.74l0,0   C124.525,188.494,123.936,188.424,123.335,188.274z M265.275,155.694c-2.23-3.49-1.21-8.13,2.28-10.36l0,0   c3.48-2.24,8.12-1.22,10.36,2.27l0,0c2.23,3.48,1.21,8.12-2.28,10.36l0,0c-1.25,0.8-2.65,1.18-4.03,1.18l0,0   C269.136,159.144,266.715,157.924,265.275,155.694z M133.625,157.784c-3.49-2.24-4.49-6.88-2.25-10.37l0,0   c2.24-3.48,6.88-4.49,10.36-2.25l0,0c3.49,2.24,4.49,6.89,2.25,10.37l0,0c-1.43,2.23-3.85,3.44-6.31,3.44l0,0   C136.286,158.974,134.875,158.594,133.625,157.784z M245.315,134.234c-3.34-2.45-4.06-7.15-1.61-10.48l0,0   c2.45-3.34,7.15-4.06,10.49-1.61l0,0c3.33,2.45,4.05,7.14,1.6,10.48l0,0c-1.47,2-3.74,3.06-6.05,3.06l0,0   C248.206,135.684,246.656,135.214,245.315,134.234z M153.516,132.494c-2.44-3.34-1.71-8.04,1.63-10.48l0,0   c3.35-2.44,8.04-1.71,10.48,1.63l0,0c2.45,3.35,1.72,8.04-1.63,10.48l0,0c-1.33,0.98-2.88,1.45-4.41,1.45l0,0   C157.266,135.574,154.985,134.504,153.516,132.494z M219.045,122.204c-4.04-0.9-6.6-4.9-5.7-8.94l0,0c0.89-4.05,4.89-6.6,8.94-5.71   l0,0c4.04,0.9,6.6,4.9,5.7,8.95l0,0c-0.77,3.49-3.87,5.88-7.32,5.88l0,0C220.136,122.384,219.585,122.324,219.045,122.204z    M181.366,116.434c-0.88-4.04,1.69-8.04,5.73-8.93l0,0c4.05-0.88,8.05,1.69,8.93,5.73l0,0c0.88,4.05-1.68,8.05-5.73,8.93l0,0   c-0.54,0.12-1.08,0.17-1.6,0.17l0,0C185.246,122.334,182.136,119.944,181.366,116.434z"/>
	<circle style="fill:#FFFFFF;" cx="204.585" cy="52.124" r="7.5"/>
</g>















</svg>
